<?xml version="1.0" encoding="utf-8"?>
<svg width="35px" height="35px" viewbox="0 0 35 35" version="1.1" xmlns:xlink="http://www.w3.org/1999/xlink" xmlns="http://www.w3.org/2000/svg">
  <defs>
    <path d="M17 34C26.3888 34 34 26.3888 34 17C34 7.61116 26.3888 0 17 0C7.61116 0 0 7.61116 0 17C0 26.3888 7.61116 34 17 34Z" id="path_1" />
    <path d="M50.2791 4.40414C50.8451 4.80732 51.3852 5.24609 51.8959 5.7178C53.0277 6.76339 53.9345 7.878 54.3591 8.65411C55.3422 10.4512 55.5117 12.3608 55.3035 14.7506C55.089 17.2116 54.2397 20.5317 54.0385 21.1589C51.8949 27.8449 51.9811 37.9656 57.2072 43.3496C57.6644 43.8206 59.2507 44.942 60.5171 45.8223C62.6468 47.3022 64.6586 48.5832 66.6749 50.1496C68.8869 51.8678 70.2815 53.244 71.2663 55.0154C72.0336 56.3956 72.8837 59.1483 73.2178 62.2818C73.2825 62.888 73.3316 63.4266 73.4349 64.024C73.8085 66.1837 74.5176 68.0248 75.1216 68.9211C75.9145 70.0976 78.0805 71.7075 81.326 72.8508C82.7455 73.3509 85.789 73.8448 88.0122 75.0878C89.9787 76.1871 91.5715 77.7355 92.8462 79.591C68.0719 99.8363 34.3542 98.1619 15.7184 79.591C-5.91403 58.0338 -4.55386 16.5339 15.7184 4.01794C25.5935 -2.07884 38.7723 -0.545178 50.6646 4.01794" id="path_2" />
    <clipPath id="mask_1">
      <use xlink:href="#path_1" />
    </clipPath>
    <clipPath id="mask_2">
      <use xlink:href="#path_2" />
    </clipPath>
  </defs>
  <g id="avatar" transform="translate(0.5 0.5)">
    <path d="M17 34C26.3888 34 34 26.3888 34 17C34 7.61116 26.3888 0 17 0C7.61116 0 0 7.61116 0 17C0 26.3888 7.61116 34 17 34Z" id="Oval" fill="#4C52BC" fill-rule="evenodd" stroke="none" />
    <g clip-path="url(#mask_1)">
      <path d="M7.40323 0C7.44683 2.23599 7.91034 4.44462 8.77025 6.5138C10.4538 10.5312 13.2109 12.9101 15.9548 15.0001C19.9109 18.0128 24.8088 20.8326 27.2209 22.0123C29.5023 23.128 31.7534 24.4255 34.0546 25.4938C36.0553 26.628 37.9941 27.8651 39.8633 29.1999C45.5587 33.2707 49.709 38.2627 50.8068 40.6062C52.1696 43.5156 52.9776 46.9783 52.9613 50.8754C52.9368 56.7325 50.8803 61.1583 49.4305 63.9031C46.3791 69.6803 41.2609 76.9717 39.759 79.0155C36.0818 84.019 32.9654 89.501 30.41 95.4615C29.5287 93.0483 28.7437 90.6254 28.0277 88.1125C26.9524 84.3377 26.0773 80.0559 25.5221 77.2186C23.2521 65.6176 14.0149 53.0793 0 39.9815L0 0.112205L7.40323 0Z" transform="translate(-23.191162 -15.318665)" id="SHAPE" fill="#F98E73" fill-rule="evenodd" stroke="none" />
      <g id="shapes" transform="translate(-32.34497 -12.049438)">
        <path d="M50.2791 4.40414C50.8451 4.80732 51.3852 5.24609 51.8959 5.7178C53.0277 6.76339 53.9345 7.878 54.3591 8.65411C55.3422 10.4512 55.5117 12.3608 55.3035 14.7506C55.089 17.2116 54.2397 20.5317 54.0385 21.1589C51.8949 27.8449 51.9811 37.9656 57.2072 43.3496C57.6644 43.8206 59.2507 44.942 60.5171 45.8223C62.6468 47.3022 64.6586 48.5832 66.6749 50.1496C68.8869 51.8678 70.2815 53.244 71.2663 55.0154C72.0336 56.3956 72.8837 59.1483 73.2178 62.2818C73.2825 62.888 73.3316 63.4266 73.4349 64.024C73.8085 66.1837 74.5176 68.0248 75.1216 68.9211C75.9145 70.0976 78.0805 71.7075 81.326 72.8508C82.7455 73.3509 85.789 73.8448 88.0122 75.0878C89.9787 76.1871 91.5715 77.7355 92.8462 79.591C68.0719 99.8363 34.3542 98.1619 15.7184 79.591C-5.91403 58.0338 -4.55386 16.5339 15.7184 4.01794C25.5935 -2.07884 38.7723 -0.545178 50.6646 4.01794" id="SHAPE-2" fill="#C4E2E6" fill-opacity="0.878" fill-rule="evenodd" stroke="none" />
        <g clip-path="url(#mask_2)">
          <path d="M30.4074 89.5757C29.5273 87.1541 28.7432 84.7231 28.0278 82.2011C26.9525 78.4097 26.0773 74.1089 25.5222 71.259C23.2522 59.6066 14.0151 47.0127 0 33.8568L0 6.59557C1.82186 4.51219 3.89436 2.72911 6.21246 1.3164C7.00685 0.832639 7.82784 0.393156 8.67161 0C8.70376 0.0804213 8.73657 0.160714 8.77002 0.240879C10.4536 4.27608 13.2106 6.66555 15.9546 8.76479C19.9106 11.7909 24.8086 14.6232 27.2207 15.8082C29.5021 16.9287 31.7532 18.232 34.0545 19.3051C36.0551 20.4443 37.994 21.6869 39.8631 23.0277C41.1461 23.9505 42.3813 24.9368 43.564 25.9828C43.3583 31.31 44.5753 36.9337 48.069 40.4864C48.5302 40.9553 50.1306 42.0722 51.4081 42.949C51.9295 43.3066 52.4438 43.6525 52.9529 43.9937C52.9596 44.2602 52.9624 44.5286 52.9613 44.7992C52.9367 50.6823 50.8803 55.1277 49.4305 57.8847C46.3791 63.6875 41.2609 71.0112 39.7589 73.0641C36.0829 78.0882 32.9675 83.5925 30.4125 89.5769L30.4074 89.5757Z" transform="translate(9.153846 2.6153846)" id="SHAPE-3" fill="#F8D9AF" fill-rule="evenodd" stroke="none" />
        </g>
      </g>
    </g>
  </g>
</svg>