<?xml version="1.0" encoding="utf-8"?>
<svg width="27px" height="27px" viewbox="0 0 27 27" version="1.1" xmlns:xlink="http://www.w3.org/1999/xlink" xmlns="http://www.w3.org/2000/svg">
  <g id="notifications" transform="translate(1 1)">
    <path d="M18.0032 13.5024L0 13.5024C1.49143 13.5024 2.70048 12.2933 2.70048 10.8019L2.70048 6.30112C2.70048 2.82111 5.52158 -3.99751e-16 9.00159 0C12.4816 3.99751e-16 15.3027 2.82111 15.3027 6.30112L15.3027 10.8019C15.3027 12.2933 16.5118 13.5024 18.0032 13.5024L18.0032 13.5024ZM10.5589 17.103C10.2368 17.6582 9.64349 18 9.00161 18C8.35974 18 7.76641 17.6582 7.44434 17.103L10.5589 17.103Z" transform="translate(0 7)" id="bell" fill="none" fill-rule="evenodd" stroke="#B1B4CE" stroke-width="2" stroke-linecap="round" stroke-linejoin="round" />
    <path d="M3.5 7C5.433 7 7 5.433 7 3.5C7 1.567 5.433 0 3.5 0C1.567 0 0 1.567 0 3.5C0 5.433 1.567 7 3.5 7Z" transform="translate(17.999756 0)" id="Oval" fill="#F98E73" fill-rule="evenodd" stroke="none" />
  </g>
</svg>